<svg width="18" height="21" viewBox="0 0 18 21" fill="none" xmlns="http://www.w3.org/2000/svg">
<path d="M0 20.1491C0 19.8577 0 19.5662 0 19.2748C0.416303 19.2748 0.832606 19.2748 1.24891 19.2748C1.41543 19.2748 1.41543 19.2748 1.41543 19.1083C1.41543 13.1968 1.41543 7.24367 1.41543 1.33217C1.41543 1.16565 1.45706 1.12402 1.62358 1.08239C2.78923 0.707715 3.95487 0.333042 5.12052 0C5.16215 0 5.24541 1.58187e-07 5.32867 0.0416305C6.16128 0.457934 6.99389 0.915867 7.82649 1.33217C7.90975 1.3738 7.95139 1.41543 7.95139 1.54032C7.95139 3.20553 7.95139 4.87075 7.95139 6.53596C7.95139 6.57759 7.95139 6.61922 7.95139 6.70248C7.90976 6.70248 7.82649 6.74411 7.78486 6.74411C7.24367 6.91063 6.70247 7.07715 6.11965 7.24367C5.99476 7.2853 5.99476 7.32693 5.99476 7.45183C5.99476 8.99215 5.99476 10.5325 5.99476 12.1144C5.99476 12.5724 5.99476 13.0303 5.99476 13.4882C5.99476 13.5298 5.99476 13.6131 5.95313 13.6131C5.66172 13.8213 5.37031 14.071 5.03727 14.2792C5.03727 9.57497 5.03727 4.91238 5.03727 0.208152C4.99564 0.208152 4.954 0.208152 4.91237 0.249782C3.82998 0.582824 2.78923 0.915867 1.70685 1.24891C1.58195 1.29054 1.54031 1.33217 1.54031 1.45706C1.54031 7.36856 1.54031 13.2384 1.54031 19.1499C1.54031 19.1916 1.54031 19.2332 1.54031 19.2748C1.54031 19.3165 1.58195 19.3581 1.58195 19.3581C1.70684 19.3581 1.87336 19.3581 1.99825 19.3581C1.99825 19.2748 1.99825 19.2332 1.99825 19.1916C1.99825 13.4882 1.99825 7.74324 1.99825 2.03989C1.99825 1.95662 1.99825 1.91499 1.99825 1.83173C1.99825 1.7901 2.03988 1.74847 2.03988 1.74847C2.12314 1.70684 2.24803 1.70684 2.37292 1.66521C2.37292 7.57671 2.37292 13.4466 2.37292 19.3581C2.53944 19.3581 2.66433 19.3581 2.83086 19.3581C2.99738 19.3581 2.99737 19.3581 2.99737 19.1916C2.99737 13.405 2.99737 7.61835 2.99737 1.83173C2.99737 1.49869 2.99738 1.49869 3.33042 1.41543C3.33042 1.41543 3.33043 1.41543 3.37206 1.41543C3.37206 7.41019 3.37206 13.3633 3.37206 19.3581C3.41369 19.3581 3.41368 19.3581 3.41368 19.3581C3.53857 19.3581 3.66347 19.3581 3.78836 19.3581C4.03814 19.3581 3.99651 19.3997 3.99651 19.1499C3.99651 13.2384 3.99651 7.32693 3.99651 1.41543C3.99651 1.3738 3.99651 1.33217 3.99651 1.29054C3.99651 1.24891 4.03813 1.24891 4.03813 1.20728C4.12139 1.16565 4.24629 1.16565 4.37118 1.12402C4.37118 7.20204 4.37118 13.2801 4.37118 19.3581C4.57933 19.3581 4.74585 19.3581 4.954 19.3581C4.954 17.9843 4.954 16.6105 4.954 15.1951C5.24542 15.4865 5.49519 15.7363 5.74498 15.986C5.82824 16.0693 5.82824 16.1109 5.82824 16.1942C5.82824 17.1933 5.82824 18.1924 5.82824 19.1916C5.82824 19.2332 5.82824 19.2748 5.82824 19.3581C6.03639 19.3581 6.20291 19.3581 6.41106 19.3581C6.41106 18.0676 6.41106 16.7354 6.41106 15.4448C6.3278 15.4865 6.24454 15.5697 6.16128 15.6114C6.16128 15.6114 6.16128 15.5697 6.20291 15.5697C5.9115 15.32 5.62009 15.0285 5.32867 14.7788C7.16041 13.4466 8.95051 12.1144 10.7406 10.8239C12.5307 12.156 14.3208 13.4466 16.1109 14.7788C15.8195 15.0702 15.5697 15.3616 15.2783 15.653C15.1951 15.6114 15.1118 15.5281 15.0285 15.4865C15.0285 16.8186 15.0285 18.1092 15.0285 19.3997C15.9444 19.3997 16.8603 19.3997 17.7761 19.3997C17.7761 19.6911 17.7761 19.9825 17.7761 20.274C11.9063 20.1491 5.95313 20.1491 0 20.1491ZM12.2393 16.0693C11.8646 16.0693 11.4483 16.0693 11.0737 16.0693C11.0737 16.444 11.0737 16.8603 11.0737 17.2349C11.4483 17.2349 11.8646 17.2349 12.2393 17.2349C12.2393 16.8603 12.2393 16.444 12.2393 16.0693ZM9.40845 17.2349C9.78312 17.2349 10.1994 17.2349 10.5741 17.2349C10.5741 16.8603 10.5741 16.444 10.5741 16.0693C10.1994 16.0693 9.78312 16.0693 9.40845 16.0693C9.40845 16.444 9.40845 16.8603 9.40845 17.2349ZM11.032 15.6114C11.4067 15.6114 11.823 15.6114 12.1977 15.6114C12.2809 15.1951 11.823 14.4041 11.032 14.4457C11.032 14.8204 11.032 15.2367 11.032 15.6114ZM10.5741 15.6114C10.5741 15.2367 10.5741 14.8204 10.5741 14.4457C10.0329 14.3625 9.32519 15.0285 9.40845 15.6114C9.82475 15.6114 10.1994 15.6114 10.5741 15.6114Z" fill="white"/>
<path d="M6.61926 13.0719C6.74415 13.0303 6.78578 12.947 6.78578 12.8638C6.78578 11.2402 6.78578 9.61661 6.78578 7.99303C6.78578 7.86813 6.82741 7.78487 6.9523 7.74324C7.99306 7.4102 9.03382 7.07716 10.0746 6.78575C10.1162 6.78575 10.1578 6.74412 10.2411 6.74412C10.2411 7.99303 10.2411 9.2003 10.2411 10.4492C10.4076 10.3243 10.5741 10.2411 10.7407 10.1162C10.8239 10.0329 10.9072 10.0329 10.9904 10.1162C11.6565 10.6157 12.3642 11.1153 13.0303 11.6149C13.072 11.6565 13.1136 11.6565 13.1552 11.6981C13.1552 11.6149 13.1552 11.5732 13.1552 11.5316C13.1552 10.366 13.1552 9.2003 13.1552 8.03466C13.1552 7.95139 13.1136 7.90977 13.0303 7.86813C12.1977 7.45183 11.3651 6.9939 10.4909 6.57759C10.4492 6.53596 10.366 6.53596 10.3244 6.53596C9.15871 6.91064 7.95143 7.28531 6.78578 7.61835C6.66089 7.65998 6.61926 7.70161 6.61926 7.8265C6.61926 9.49172 6.61926 11.1986 6.61926 12.8638C6.61926 12.947 6.61926 12.9887 6.61926 13.0719Z" fill="white"/>
<path d="M7.57675 8.15953C7.53512 8.15953 7.53513 8.15953 7.53513 8.15953C7.24372 8.24279 7.24371 8.24279 7.24371 8.5342C7.24371 9.82474 7.24371 11.1153 7.24371 12.4058C7.24371 12.4475 7.24371 12.5307 7.24371 12.614C7.3686 12.5307 7.49349 12.4475 7.57675 12.3642C7.61838 12.3226 7.61838 12.2809 7.61838 12.2393C7.61838 10.9071 7.61838 9.57496 7.61838 8.24279C7.61838 8.24279 7.57675 8.20116 7.57675 8.15953Z" fill="white"/>
<path d="M8.2428 11.8646C8.36769 11.7814 8.45096 11.6981 8.57585 11.6149C8.61748 11.5732 8.61747 11.5316 8.61747 11.5316C8.61747 10.3243 8.61747 9.15867 8.61747 7.95139C8.61747 7.95139 8.61747 7.90976 8.61747 7.86813C8.53421 7.90976 8.40932 7.90976 8.32606 7.95139C8.28443 7.95139 8.28443 7.99302 8.28443 8.03465C8.28443 8.07628 8.28443 8.11792 8.28443 8.15955C8.28443 9.36682 8.28443 10.5741 8.28443 11.7814C8.2428 11.7814 8.2428 11.823 8.2428 11.8646Z" fill="white"/>
<path d="M9.24194 11.1569C9.36683 11.0737 9.49173 10.9904 9.57499 10.9071C9.61662 10.8655 9.61663 10.8239 9.61663 10.7823C9.61663 9.74149 9.61663 8.70074 9.61663 7.65998V7.61835C9.53337 7.65998 9.40847 7.65998 9.32521 7.70161C9.28358 7.70161 9.28358 7.78487 9.28358 7.8265C9.28358 8.49258 9.28358 9.15867 9.28358 9.82475C9.28358 10.1994 9.28358 10.5741 9.28358 10.9488C9.24195 11.032 9.24194 11.0737 9.24194 11.1569Z" fill="white"/>
</svg>
