<svg width="22" height="20" viewBox="0 0 22 20" fill="none" xmlns="http://www.w3.org/2000/svg">
<path fill-rule="evenodd" clip-rule="evenodd" d="M8.57584 15.2783L9.69986 18.5255L10.2411 16.5689L9.94964 16.2774C9.82475 16.1109 9.78312 15.9444 9.86638 15.8195C10.0329 15.5281 10.3243 15.5697 10.6157 15.5697C10.9071 15.5697 11.2818 15.5281 11.3651 15.9028C11.4067 16.0277 11.3651 16.1526 11.2818 16.2774L10.9904 16.5689L11.5316 18.5255L12.5307 15.2783C13.2384 15.9444 15.4032 16.0693 16.1942 16.4856C16.444 16.6105 16.6938 16.8186 16.8603 17.0268C17.3598 17.6929 17.4015 17.7345 17.5264 18.5255C17.4847 18.9418 17.2349 19.1916 16.777 19.2332H4.32955C3.82999 19.1916 3.62184 18.9418 3.58021 18.5255C3.7051 17.6929 3.74673 17.6512 4.24629 17.0268C4.41281 16.777 4.66259 16.6105 4.91237 16.4856C5.70335 16.0693 7.86813 15.9444 8.57584 15.2783ZM4.82911 15.0702C4.82911 15.0285 4.78749 15.0285 4.78749 14.9869C4.70423 14.862 4.62096 14.7371 4.5377 14.5706C4.45444 14.4041 4.37118 14.2792 4.32955 14.1127C4.24629 13.9462 4.20466 13.8213 4.1214 13.6547C4.07977 13.5298 3.99651 13.3633 3.95488 13.1968C3.87162 12.947 3.62184 12.7805 3.37205 12.7805H1.66521C1.62358 12.7805 1.54032 12.7805 1.49869 12.7389C1.45706 12.7389 1.41543 12.6972 1.3738 12.6556C1.33217 12.614 1.29054 12.5724 1.29054 12.5307C1.29054 12.4891 1.24891 12.4475 1.24891 12.3642V10.2827C1.24891 10.2411 1.24891 10.1578 1.24891 10.1162C1.24891 10.0745 1.29054 10.0329 1.33217 9.99127C1.3738 9.94964 1.41543 9.90801 1.45706 9.90801C1.49869 9.90801 1.54032 9.86638 1.62358 9.86638H3.1639C3.49694 9.86638 3.74673 9.65823 3.78836 9.36682C3.82999 9.2003 3.87162 9.03378 3.91325 8.90889C3.95488 8.74236 3.99651 8.61747 4.07977 8.45095C4.1214 8.28443 4.20466 8.15954 4.28792 7.99302C4.37118 7.8265 4.45444 7.70161 4.49607 7.57672C4.62096 7.32693 4.57934 7.03552 4.37119 6.82737L3.1639 5.62009C3.12227 5.57846 3.08064 5.53683 3.08064 5.4952C3.08064 5.45357 3.08064 5.41194 3.08064 5.37031C3.08064 5.32868 3.08064 5.24542 3.12227 5.20379C3.12227 5.16216 3.1639 5.12053 3.20554 5.0789L4.70422 3.58021C4.74585 3.53858 4.78748 3.49695 4.82911 3.49695C4.87074 3.49695 4.91238 3.45531 4.99564 3.45531C5.03727 3.45531 5.12053 3.45532 5.16216 3.49695C5.20379 3.53858 5.24542 3.53858 5.28705 3.58021L6.36943 4.66259C6.57759 4.87075 6.91063 4.91238 7.16041 4.74586C7.28531 4.66259 7.4102 4.57933 7.57672 4.49607C7.74324 4.41281 7.86813 4.32955 8.03465 4.28792C8.20117 4.20466 8.32606 4.16303 8.49258 4.07977C8.61747 4.03814 8.784 3.95488 8.95052 3.91325C9.2003 3.82999 9.36682 3.58021 9.36682 3.33042V1.62358C9.36682 1.58195 9.36682 1.49869 9.40845 1.45706C9.40845 1.41543 9.45008 1.3738 9.49171 1.33217C9.53334 1.29054 9.57497 1.24891 9.6166 1.24891C9.65823 1.24891 9.69986 1.20728 9.78312 1.20728H11.2818H11.4483C11.49 1.20728 11.5732 1.20728 11.6149 1.24891C11.6565 1.24891 11.6981 1.29054 11.7397 1.33217C11.7814 1.3738 11.7814 1.41543 11.823 1.45706C11.823 1.49869 11.8646 1.54032 11.8646 1.62358V3.33042C11.8646 3.58021 12.0312 3.82999 12.2809 3.91325C12.4475 3.95488 12.614 4.03814 12.7389 4.07977C12.9054 4.1214 13.0719 4.20466 13.1968 4.28792C13.3217 4.37118 13.4882 4.45444 13.6547 4.49607C13.8213 4.57933 13.9461 4.66259 14.071 4.74586C14.3208 4.91238 14.6539 4.91238 14.862 4.66259L15.9444 3.58021C15.986 3.53858 16.0277 3.49695 16.0693 3.49695C16.1109 3.49695 16.1526 3.45531 16.2358 3.45531C16.2775 3.45531 16.3607 3.45532 16.4023 3.49695C16.444 3.49695 16.4856 3.53858 16.5272 3.58021L18.0259 5.0789C18.0675 5.12053 18.1092 5.16216 18.1092 5.20379C18.1092 5.24542 18.1508 5.28705 18.1508 5.37031C18.1508 5.41194 18.1508 5.45357 18.1508 5.4952C18.1508 5.53683 18.1092 5.57846 18.0676 5.62009L16.8603 6.82737C16.6521 7.03552 16.6105 7.32693 16.7354 7.57672C16.8186 7.70161 16.9019 7.86813 16.9435 7.99302C17.0268 8.15954 17.0684 8.28443 17.1517 8.45095C17.1933 8.61747 17.2766 8.74236 17.3182 8.90889C17.3598 9.03378 17.4015 9.2003 17.4431 9.36682C17.4847 9.65823 17.7761 9.86638 18.0676 9.86638H19.6079C19.6495 9.86638 19.7328 9.86638 19.7744 9.90801C19.816 9.90801 19.8577 9.94964 19.8993 9.99127C19.9409 10.0329 19.9825 10.0745 19.9825 10.1162C19.9825 10.1578 19.9825 10.1994 19.9825 10.2827V12.4058C19.9825 12.4475 19.9825 12.5307 19.9409 12.5724C19.9409 12.614 19.8993 12.6556 19.8577 12.6972C19.816 12.7389 19.7744 12.7805 19.7328 12.7805C19.6911 12.7805 19.6495 12.8221 19.5662 12.8221H17.8594C17.6096 12.8221 17.3598 12.9887 17.2766 13.2384C17.2349 13.405 17.1517 13.5715 17.1101 13.6964C17.0684 13.8629 16.9852 14.0294 16.9019 14.1543C16.7354 14.4457 16.6105 14.7371 16.444 14.9869C16.444 15.0285 16.4023 15.0285 16.4023 15.0702H17.8594C17.901 14.9453 17.9843 14.8204 18.0676 14.6539C18.1508 14.4873 18.2341 14.3208 18.2757 14.1127C18.2757 14.071 18.3173 14.0294 18.3173 14.0294H19.5662C19.7744 14.0294 20.0242 13.9878 20.1907 13.9045C20.3989 13.8213 20.5654 13.6964 20.7319 13.5298C20.8984 13.3633 21.0233 13.1968 21.1066 12.9887C21.1898 12.7805 21.2315 12.5724 21.2315 12.3642V10.2827C21.2315 10.0745 21.1898 9.86638 21.1066 9.65823C21.0233 9.45008 20.8984 9.28356 20.7735 9.11704C20.607 8.95052 20.4405 8.82562 20.2323 8.74236C20.0242 8.6591 19.816 8.61747 19.6079 8.61747H18.5255C18.5255 8.57584 18.5255 8.57584 18.5255 8.53421C18.4839 8.36769 18.4006 8.15954 18.359 7.99302C18.2757 7.8265 18.1924 7.61835 18.1508 7.45183C18.1508 7.45183 18.1092 7.41019 18.1092 7.36856L18.9834 6.49433C19.1499 6.32781 19.2748 6.16129 19.3581 5.99476C19.4414 5.78661 19.483 5.57846 19.483 5.37031C19.483 5.16216 19.4414 4.95401 19.3581 4.74586C19.2748 4.5377 19.1499 4.37118 18.9834 4.20466L17.4847 2.70597C17.3182 2.53945 17.1517 2.41456 16.9435 2.3313C16.7354 2.24804 16.5272 2.20641 16.3191 2.20641C16.1109 2.20641 15.9028 2.24804 15.6946 2.3313C15.4865 2.41456 15.32 2.53945 15.1534 2.70597L14.4041 3.45531L14.3625 3.41369C14.1959 3.33042 14.0294 3.24716 13.8629 3.1639C13.6964 3.08064 13.5299 2.99738 13.3217 2.95575C13.2801 2.95575 13.2384 2.91412 13.2384 2.91412V1.66521C13.2384 1.45706 13.1968 1.20728 13.1135 1.04076C13.0303 0.832606 12.9054 0.666085 12.7389 0.499564C12.5724 0.333043 12.4058 0.208152 12.1977 0.124891C11.9895 0.0416308 11.7814 0 11.5732 0H10.8239H10.6574H9.90801C9.69986 0 9.49171 0.0416308 9.28356 0.124891C9.0754 0.208152 8.90889 0.333043 8.74237 0.499564C8.57585 0.666085 8.45095 0.832606 8.36769 1.04076C8.28443 1.24891 8.2428 1.45706 8.2428 1.66521V2.91412C8.20117 2.91412 8.15954 2.95575 8.15954 2.95575C7.99302 3.03901 7.8265 3.12227 7.61834 3.1639C7.45182 3.24716 7.24367 3.33042 7.11878 3.41369L7.07715 3.45531L6.32781 2.70597C6.16129 2.53945 5.99476 2.41456 5.78661 2.3313C5.57846 2.24804 5.37031 2.20641 5.16216 2.20641C4.95401 2.20641 4.74586 2.24804 4.5377 2.3313C4.32955 2.41456 4.16303 2.53945 3.99651 2.70597L2.49782 4.20466C2.3313 4.37118 2.20641 4.5377 2.12314 4.74586C2.03988 4.95401 1.99826 5.16216 1.99826 5.37031C1.99826 5.57846 2.03988 5.82824 2.12314 5.99476C2.20641 6.20292 2.3313 6.36944 2.49782 6.49433L3.37205 7.36856C3.37205 7.41019 3.33043 7.41019 3.33043 7.45183C3.24717 7.61835 3.1639 7.78487 3.12227 7.99302C3.03901 8.15954 2.99738 8.36769 2.95575 8.53421C2.95575 8.57584 2.95575 8.57584 2.95575 8.61747H1.62358C1.41543 8.61747 1.16565 8.6591 0.999128 8.74236C0.790976 8.82562 0.624454 8.95052 0.457933 9.11704C0.291411 9.28356 0.166522 9.45008 0.124892 9.65823C0.0416316 9.86638 0 10.0745 0 10.2827V12.4058C0 12.614 0.0416316 12.8221 0.124892 13.0303C0.208153 13.2384 0.333044 13.405 0.499566 13.5715C0.666087 13.738 0.832606 13.8629 1.04076 13.9462C1.24891 14.0294 1.45706 14.071 1.66521 14.071H2.91412C2.91412 14.1127 2.95575 14.1543 2.95575 14.1543C3.03901 14.3208 3.12227 14.4873 3.1639 14.6955C3.24716 14.8204 3.28879 14.9869 3.37205 15.1118L4.82911 15.0702ZM8.07628 10.6157C7.95139 10.6157 7.8265 10.6574 7.74324 10.699C7.70161 10.7406 7.65998 10.7406 7.65998 10.7822C7.61835 10.8239 7.61834 10.8655 7.61834 10.9488C7.61834 11.1569 7.74324 11.3651 7.90976 11.6565L8.53422 12.6556C8.784 13.0303 9.03378 13.4466 9.36682 13.738C9.65823 14.0294 10.0745 14.1959 10.5741 14.1959C11.1153 14.1959 11.5316 13.9878 11.823 13.6964C12.156 13.3633 12.4058 12.947 12.6972 12.5307L13.405 11.3651C13.5299 11.0737 13.5715 10.8655 13.5715 10.7406C13.5715 10.6574 13.4882 10.6574 13.3633 10.6157C13.3217 10.6157 13.3217 10.6157 13.2801 10.6157C13.2384 10.6157 13.1968 10.6157 13.1968 10.6157H13.1552C13.1135 10.6157 13.0303 10.6157 12.947 10.6157L13.1968 9.57497C11.9063 9.57497 11.032 9.32519 10.0329 8.6591C9.69986 8.45095 9.57497 8.20117 9.24193 8.20117C8.99215 8.2428 8.784 8.36769 8.61747 8.53421C8.45095 8.70073 8.32606 8.95052 8.2428 9.24193L8.36769 10.4908C8.20117 10.6157 8.15954 10.6157 8.07628 10.6157ZM13.5715 10.4076C13.738 10.4492 13.8629 10.5741 13.9045 10.7406C13.9462 10.9488 13.9045 11.1986 13.738 11.5732L13.0303 12.7389C12.7389 13.1968 12.4891 13.6547 12.1144 13.9878C11.7397 14.3625 11.2818 14.5706 10.6157 14.5706C10.0329 14.5706 9.57497 14.3208 9.2003 13.9878C8.82562 13.6547 8.57585 13.2384 8.32606 12.8221L7.70161 11.823C7.49346 11.49 7.36857 11.1569 7.36857 10.9071C7.36857 10.7822 7.36856 10.699 7.41019 10.5741C7.45182 10.4908 7.53508 10.4076 7.61834 10.3243C7.65997 10.2827 7.70161 10.2827 7.78487 10.2411C7.74324 9.69986 7.74324 9.03378 7.74324 8.45095C7.74324 8.32606 7.78486 8.20117 7.8265 8.03465C7.99302 7.45182 8.36769 6.99389 8.86725 6.70248C9.03377 6.57759 9.24193 6.49433 9.45008 6.41107C10.6574 5.99476 12.1977 6.20292 13.0719 7.11878C13.405 7.49346 13.6131 7.99302 13.6964 8.61747L13.5715 10.4076Z" fill="white"/>
</svg>
