<svg width="24" height="20" viewBox="0 0 24 20" fill="none" xmlns="http://www.w3.org/2000/svg">
<path d="M16.7027 0.00285635L15.0837 1.62188L21.5598 8.09797L23.1788 6.47895L16.7027 0.00285635Z" fill="white"/>
<path d="M6.47609 -3.4462e-06L0 6.47609L1.61902 8.09511L8.09512 1.61902L6.47609 -3.4462e-06Z" fill="white"/>
<path d="M5.66749 11.8624C5.29282 11.4878 4.70999 11.4878 4.33532 11.8624L3.79413 12.4036C3.41945 12.7783 3.41945 13.3611 3.79413 13.7358C4.1688 14.1105 4.75162 14.1105 5.1263 13.7358L5.66749 13.1946C6.04216 12.8616 6.04216 12.2371 5.66749 11.8624Z" fill="white"/>
<path d="M9.4142 15.6508C9.03952 15.2761 8.4567 15.2761 8.08202 15.6508L7.54083 16.192C7.16616 16.5666 7.16616 17.1495 7.54083 17.5241C7.9155 17.8988 8.49833 17.8988 8.873 17.5241L9.4142 16.983C9.78887 16.6499 9.78887 16.0255 9.4142 15.6508Z" fill="white"/>
<path d="M9.83043 17.6907L9.58064 17.9405C9.20597 18.3151 9.20597 18.9812 9.6639 19.3559C10.0386 19.6889 10.6214 19.6057 10.9961 19.231L11.1626 19.0645C11.5373 18.6898 11.5789 18.107 11.2875 17.7323C10.8712 17.316 10.2467 17.2744 9.83043 17.6907Z" fill="white"/>
<path d="M7.66569 13.6109C7.29101 13.2362 6.70819 13.2362 6.33352 13.6109L5.54254 14.4019C5.16787 14.7766 5.16787 15.3594 5.54254 15.734C5.91721 16.1087 6.50004 16.1087 6.87471 15.734L7.66569 14.9431C8.04036 14.61 8.04036 13.9856 7.66569 13.6109Z" fill="white"/>
<path d="M14.8677 2.95355C14.493 3.32822 14.035 3.53637 13.5355 3.53637C12.9943 3.53637 12.4947 3.74452 12.1201 4.1192L9.91365 6.3256C9.5806 6.65864 9.49734 7.24147 9.78876 7.65777C10.1634 8.11571 10.8295 8.1157 11.2042 7.74103L12.9527 5.99256L13.4939 5.45137C14.2432 6.20071 15.4505 6.20071 16.1998 5.45137L16.741 5.99256C16.1998 6.53375 15.5337 6.78354 14.826 6.78354L19.1556 11.1131C19.5302 10.7384 19.6968 10.2389 19.6968 9.69766C19.6968 9.15646 19.9465 8.69853 20.3212 8.32386L20.5294 8.11571L15.1174 2.70377L14.8677 2.95355Z" fill="white"/>
<path d="M13.4939 6.49212L11.7454 8.2406C11.0793 8.90668 9.99692 8.90668 9.33083 8.2406C9.2892 8.19897 9.24757 8.15734 9.20594 8.11571C8.66475 7.44962 8.70638 6.40886 9.37246 5.78441L11.0793 4.07757C10.7046 3.74452 10.2051 3.53637 9.7055 3.53637C9.16431 3.53637 8.66475 3.28659 8.29007 2.91192L8.08192 2.70377L2.66998 8.11571L2.91977 8.36549C3.29444 8.74016 3.50259 9.23972 3.50259 9.78092C3.50259 10.2805 3.71074 10.78 4.08541 11.1131C4.7515 10.6968 5.62573 10.78 6.20856 11.3629C6.5416 11.6959 6.70812 12.1955 6.70812 12.6534C7.24932 12.5701 7.83214 12.695 8.24844 13.1113C8.66475 13.5276 8.83127 14.1105 8.70638 14.6517C9.16431 14.6517 9.62224 14.7766 9.99692 15.1512C10.4132 15.5675 10.5797 16.1504 10.4548 16.6916C10.9128 16.6916 11.3707 16.8164 11.7454 17.1911C12.245 17.6907 12.3698 18.3984 12.1201 19.0228C12.4115 19.1061 12.7445 19.0645 12.9943 18.8563C13.4522 18.4817 13.4522 17.8156 13.0776 17.4409L11.5789 15.9422L12.1201 15.401L14.1183 17.3993C14.4514 17.7323 15.0342 17.8156 15.4505 17.5242C15.9084 17.1495 15.9084 16.4834 15.5337 16.1087L13.4939 14.0688L14.0351 13.5276L16.2831 15.7757C16.6161 16.1087 17.199 16.192 17.6153 15.9006C18.0732 15.5259 18.0732 14.8598 17.6985 14.4851L15.4089 12.1955L15.95 11.6543L17.9899 13.6942C18.3646 14.0688 18.9474 14.0688 19.3221 13.6942C19.6968 13.3195 19.6968 12.7367 19.3221 12.362L13.4939 6.49212Z" fill="white"/>
</svg>
