<svg width="15" height="20" viewBox="0 0 15 20" fill="none" xmlns="http://www.w3.org/2000/svg">
<path d="M5.84619 13.2598C5.80456 12.9684 5.67967 12.7603 5.51315 12.5521C5.22174 12.2191 4.84706 12.0526 4.43076 12.0526C4.05609 12.0526 3.68141 12.0526 3.30674 12.0526C2.64066 12.1358 2.09946 12.677 2.05783 13.3431C2.0162 14.0092 2.4325 14.6336 3.05696 14.8418C3.18185 14.8834 3.22348 14.9251 3.22348 15.0499C3.22348 15.2165 3.26511 15.383 3.30674 15.5495C3.22348 15.5495 3.14022 15.5495 3.05696 15.5495C2.51576 15.5079 2.0162 15.4663 1.51664 15.2997C0.600771 15.0083 0.0595742 14.3839 0.0179439 13.3847C-0.190208 10.9702 1.43338 8.88866 3.8063 8.43073C3.9312 8.3891 4.09772 8.3891 4.22261 8.34747C4.3475 8.93029 4.63891 9.38823 4.93032 9.88779C5.38825 10.6371 5.88782 11.3449 6.38738 12.0942C6.38738 12.0942 6.42901 12.1358 6.42901 12.1775C6.42901 12.0109 6.47064 11.886 6.47064 11.7612C6.51227 11.3032 6.55391 10.8453 6.55391 10.3457C6.55391 10.2625 6.51227 10.2208 6.47064 10.1792C6.22086 10.0127 6.05434 9.7629 5.97108 9.47149V9.42986V9.38823C6.92858 9.63801 7.05347 9.67964 8.09423 9.38823C8.09423 9.59638 8.05259 9.7629 7.9277 9.88779C7.84444 10.0127 7.71955 10.0959 7.59466 10.2208C7.55303 10.2625 7.55303 10.3041 7.55303 10.3457C7.59466 10.9285 7.63629 11.5114 7.67792 12.0942C7.67792 12.0942 7.67792 12.1358 7.67792 12.1775L7.71955 12.1358C8.344 11.22 9.01009 10.3041 9.55129 9.30497C9.63455 9.13844 9.7178 8.93029 9.80107 8.76377C9.8427 8.68051 9.8427 8.55562 9.88433 8.43073C10.0509 8.47236 10.2174 8.47236 10.3839 8.51399C12.2989 8.93029 13.7559 10.4706 14.0474 12.4272C14.1306 12.9268 14.1306 13.3847 14.0057 13.8843C13.8392 14.5504 13.4645 15.0499 12.7985 15.2997C12.1324 15.5495 11.4663 15.5911 10.7586 15.6328C10.8002 15.4246 10.8835 15.2581 10.9251 15.0916C11.0916 14.1757 10.4255 13.3847 9.50965 13.3431C8.96846 13.3431 8.46889 13.3431 7.9277 13.3431C7.26162 13.3431 6.63716 13.3431 5.97108 13.3431C5.92945 13.2598 5.88782 13.2598 5.84619 13.2598Z" fill="white"/>
<path d="M10.5088 3.76813C10.4672 5.01704 10.2174 6.26595 9.46804 7.34834C9.17663 7.76464 8.84358 8.13932 8.42728 8.3891C7.51141 9.01355 6.42903 9.01355 5.51316 8.3891C4.80544 7.93116 4.34751 7.26508 4.01447 6.51573C3.72305 5.84965 3.55653 5.1003 3.47327 4.35096C3.43164 3.80976 3.39001 3.26857 3.55653 2.76901C3.97283 1.31195 4.8887 0.354448 6.38739 0.063036C7.76119 -0.186746 8.88521 0.312818 9.75945 1.43684C10.3006 2.14455 10.5088 2.93553 10.5088 3.76813Z" fill="white"/>
<path d="M4.05607 13.8843C3.84791 13.8843 3.68139 13.8843 3.47324 13.8843C3.26509 13.8843 3.09856 13.7594 3.05693 13.5513C3.0153 13.3431 3.09856 13.1766 3.26509 13.0933C3.30672 13.0517 3.38998 13.0517 3.47324 13.0517C3.76465 13.0517 4.05606 13.0517 4.34748 13.0517C4.59726 13.0517 4.76378 13.1766 4.80541 13.4264C4.84704 13.6762 4.88867 13.9259 4.9303 14.1341C4.9303 14.259 5.01356 14.259 5.09682 14.259C5.80454 14.259 6.47062 14.259 7.17834 14.259C7.92768 14.259 8.67702 14.259 9.38474 14.259C9.75941 14.259 9.96757 14.5088 9.84268 14.8834C9.55126 15.7577 9.30148 16.6319 9.01007 17.5061C8.92681 17.7559 8.80192 17.8392 8.51051 17.8392C7.38649 17.8392 6.26247 17.8392 5.13845 17.8392C4.84704 17.8392 4.68052 17.7143 4.63889 17.4229C4.43074 16.2572 4.26422 15.1332 4.05607 13.9676C4.0977 13.9676 4.0977 13.9259 4.05607 13.8843Z" fill="white"/>
<path d="M5.59644 18.1722C5.92948 18.1722 6.22089 18.4636 6.22089 18.7967C6.22089 19.1714 5.92948 19.4211 5.59644 19.4211C5.26339 19.4211 4.97198 19.1297 4.97198 18.7551C4.93035 18.4636 5.26339 18.1722 5.59644 18.1722Z" fill="white"/>
<path d="M8.13581 19.4628C7.80276 19.4628 7.51135 19.1713 7.51135 18.8383C7.51135 18.5053 7.80276 18.2138 8.13581 18.2138C8.46885 18.2138 8.76026 18.5053 8.76026 18.8383C8.76026 19.1713 8.46885 19.4628 8.13581 19.4628Z" fill="white"/>
</svg>
