<svg width="21" height="19" viewBox="0 0 21 19" fill="none" xmlns="http://www.w3.org/2000/svg">
<path d="M8.20116 15.1118C6.16128 15.1118 4.1214 15.1118 2.03988 15.1118C0.790973 15.1118 0 14.3208 0 13.0719C0 9.40845 0 5.70335 0 2.03988C0 0.790975 0.790971 0 1.99825 0C7.57671 0 13.1552 0 18.7336 0C18.9002 0 19.0667 -6.35848e-07 19.2332 0.0416297C20.1907 0.208151 20.7735 0.999127 20.7735 1.99825C20.7735 5.70335 20.7735 9.36682 20.7735 13.0719C20.7735 14.2792 19.9825 15.0702 18.7336 15.0702C16.6521 15.0702 14.6122 15.0702 12.5307 15.0702C12.4475 15.0702 12.3642 15.0702 12.2809 15.0702C12.2809 15.6946 12.2809 16.3191 12.2809 16.9435C12.9054 16.9435 13.5298 16.9435 14.1127 16.9435C14.1127 17.568 14.1127 18.1924 14.1127 18.8169C11.6149 18.8169 9.11703 18.8169 6.61922 18.8169C6.61922 18.1924 6.61922 17.568 6.61922 16.9435C7.24367 16.9435 7.86812 16.9435 8.45095 16.9435C8.45095 16.3191 8.45095 15.6946 8.45095 15.0702C8.36769 15.1118 8.28442 15.1118 8.20116 15.1118ZM18.8585 13.1968C18.8585 9.45008 18.8585 5.66172 18.8585 1.91499C13.1968 1.91499 7.57672 1.91499 1.915 1.91499C1.915 5.66172 1.915 9.40845 1.915 13.1968C7.57672 13.1968 13.2384 13.1968 18.8585 13.1968Z" fill="white"/>
<path d="M8.53424 3.78836C8.53424 5.37031 8.53424 6.91063 8.53424 8.49258C11.3651 8.49258 14.1543 8.49258 16.9852 8.49258C16.9852 6.91063 16.9852 5.37031 16.9852 3.78836C14.1543 3.78836 11.3651 3.78836 8.53424 3.78836Z" fill="white"/>
<path d="M3.82996 11.3235C5.07887 11.3235 6.32777 11.3235 7.57668 11.3235C7.57668 9.74151 7.57668 8.20118 7.57668 6.61923C6.32777 6.61923 5.07887 6.61923 3.82996 6.61923C3.82996 8.15955 3.82996 9.74151 3.82996 11.3235Z" fill="white"/>
<path d="M12.281 9.45007C11.0321 9.45007 9.78315 9.45007 8.53424 9.45007C8.53424 10.0745 8.53424 10.699 8.53424 11.3234C9.78315 11.3234 11.0321 11.3234 12.281 11.3234C12.281 10.699 12.281 10.0745 12.281 9.45007Z" fill="white"/>
<path d="M7.53506 3.78836C6.28615 3.78836 5.03724 3.78836 3.78833 3.78836C3.78833 4.41282 3.78833 5.03727 3.78833 5.66172C5.03724 5.66172 6.28615 5.66172 7.53506 5.66172C7.53506 5.03727 7.53506 4.41282 7.53506 3.78836Z" fill="white"/>
<path d="M16.9852 11.3234C16.9852 10.699 16.9852 10.0745 16.9852 9.45007C15.7363 9.45007 14.4874 9.45007 13.2385 9.45007C13.2385 10.0745 13.2385 10.6574 13.2385 11.3234C14.4874 11.3234 15.7363 11.3234 16.9852 11.3234Z" fill="white"/>
</svg>
